<?xml version="1.0" standalone="no"?>
<!DOCTYPE svg PUBLIC "-//W3C//DTD SVG 20010904//EN"
 "http://www.w3.org/TR/2001/REC-SVG-20010904/DTD/svg10.dtd">
<svg version="1.0" xmlns="http://www.w3.org/2000/svg"
 width="300.000000pt" height="300.000000pt" viewBox="0 0 300.000000 300.000000"
 preserveAspectRatio="xMidYMid meet">
<metadata>
Created by potrace 1.10, written by Peter Selinger 2001-2011
</metadata>
<g transform="translate(0.000000,300.000000) scale(0.100000,-0.100000)"
fill="#000000" stroke="none">
<path d="M1348 2291 c-21 -12 -44 -21 -51 -21 -7 0 -31 -10 -52 -21 -22 -12
-53 -21 -68 -20 -27 1 -103 -31 -150 -64 -19 -13 -22 -12 -38 15 -25 40 -63
64 -93 56 -90 -22 -206 -276 -206 -449 0 -59 4 -89 16 -105 13 -20 14 -28 4
-53 -9 -21 -11 -64 -7 -142 5 -118 29 -207 68 -260 11 -15 17 -32 13 -38 -11
-18 27 -50 50 -43 44 14 78 46 72 68 -3 11 -1 35 4 51 5 17 26 97 45 179 61
258 136 452 227 587 49 73 83 107 96 94 11 -10 -17 -117 -48 -183 -17 -36 -56
-101 -87 -146 -134 -191 -139 -200 -103 -236 28 -28 45 -25 116 21 72 47 102
48 123 5 14 -30 19 -115 7 -134 -3 -6 -43 -32 -89 -58 -188 -107 -280 -184
-270 -224 4 -15 -5 -30 -32 -56 -31 -29 -36 -40 -32 -64 4 -17 0 -41 -9 -59
-14 -27 -13 -33 2 -56 30 -46 77 -59 99 -28 9 13 10 23 2 40 -9 20 -6 28 21
56 36 37 38 46 17 86 l-14 28 77 55 c42 30 103 70 135 88 50 28 57 30 57 13 0
-44 -143 -266 -167 -258 -18 6 -59 -31 -74 -66 -12 -31 -12 -33 26 -66 21 -18
44 -33 50 -33 14 0 48 36 65 70 7 14 28 38 47 54 80 67 158 203 194 340 12 47
26 77 41 89 28 23 67 55 90 75 16 13 20 13 42 -2 14 -9 31 -16 38 -16 21 0 46
35 58 80 15 56 40 54 40 -4 0 -86 73 -133 133 -86 30 24 41 25 58 4 8 -10 24
-14 46 -12 l34 4 -8 -85 c-12 -133 -8 -193 17 -213 11 -9 29 -14 40 -11 12 3
28 -1 38 -10 33 -30 72 -39 98 -23 30 20 39 51 24 87 -8 19 -9 33 -3 42 6 6
23 46 38 87 15 41 52 126 81 188 30 62 54 118 54 125 0 30 -31 57 -62 54 -30
-2 -32 0 -53 68 -77 248 -258 432 -509 517 -78 27 -109 32 -216 35 -112 4
-129 2 -162 -16z m369 -54 c129 -46 192 -85 294 -187 84 -83 102 -108 142
-190 25 -52 53 -126 62 -165 16 -69 16 -71 -6 -120 l-23 -50 -7 80 c-9 99 -29
165 -75 247 -81 144 -169 229 -309 298 -111 55 -181 72 -310 73 -85 2 -115 6
-134 19 l-23 16 23 5 c13 3 85 4 159 2 114 -2 146 -7 207 -28z m-378 -33 c58
-74 0 -276 -130 -456 -27 -37 -49 -70 -49 -73 0 -3 13 1 30 10 98 51 179 -23
180 -162 0 -35 4 -63 10 -63 11 0 132 103 171 146 17 19 29 46 34 77 5 38 10
47 23 45 14 -3 16 -13 13 -53 l-3 -50 21 19 c16 15 32 18 73 14 l53 -4 21 41
c13 25 28 41 42 43 22 3 32 -21 13 -32 -5 -3 0 -23 10 -43 31 -60 8 -154 -47
-189 -24 -16 -26 -16 -45 3 -23 22 -27 81 -10 126 l11 27 -49 0 c-59 0 -80
-20 -89 -86 -5 -35 -12 -50 -25 -52 -14 -3 -17 4 -17 44 l0 47 -57 -54 c-32
-30 -79 -70 -104 -88 -41 -29 -48 -39 -59 -89 -28 -127 -86 -243 -165 -331
-31 -34 -39 -38 -54 -29 -17 10 -15 15 21 51 63 65 157 256 158 320 0 18 -1
18 -27 -1 -16 -10 -66 -40 -113 -67 -47 -26 -113 -70 -147 -96 -54 -43 -63
-47 -72 -32 -7 13 1 24 38 54 47 37 182 121 279 174 l54 29 -4 87 c-2 70 -7
93 -24 116 -37 49 -105 39 -188 -26 -40 -32 -62 -35 -60 -9 1 7 40 70 89 138
101 144 116 171 150 274 36 106 33 186 -5 186 -62 0 -184 -180 -271 -397 -42
-107 -115 -366 -130 -463 -10 -63 -16 -81 -31 -86 -11 -3 -21 -4 -22 -2 -4 4
17 195 54 494 34 271 39 424 15 424 -7 0 -31 -30 -51 -67 -92 -163 -131 -375
-72 -390 24 -7 23 -33 -1 -33 -50 0 -70 66 -53 177 22 136 112 326 168 352 20
9 27 7 43 -11 39 -41 39 -155 1 -426 -11 -75 -19 -141 -19 -147 0 -5 18 44 40
110 90 273 244 505 336 505 12 0 31 -12 42 -26z m-190 -41 c-24 -27 -60 -60
-80 -75 -20 -15 -40 -31 -44 -37 -12 -20 -25 -11 -25 18 0 25 10 35 68 74 137
91 149 93 81 20z m524 -2 c99 -27 193 -85 277 -170 41 -42 83 -90 93 -108 l18
-32 -38 -20 c-42 -21 -81 -60 -108 -108 -19 -32 -35 -35 -35 -6 0 25 -30 53
-56 53 -13 0 -37 -15 -55 -35 -43 -45 -80 -47 -119 -5 -15 17 -34 30 -42 30
-22 0 -53 -41 -67 -87 -8 -31 -26 -54 -65 -87 -29 -25 -56 -46 -59 -46 -3 0
-11 25 -17 56 -14 65 -55 117 -105 134 -19 6 -35 14 -35 16 0 2 20 39 45 82
60 103 87 182 93 272 2 41 10 79 16 83 17 12 187 -2 259 -22z m-810 -176 c-25
-19 -26 -13 -6 30 18 38 18 38 21 11 2 -18 -3 -32 -15 -41z m11 -77 c-16 -80
-55 -178 -71 -178 -21 0 -15 76 8 123 25 47 68 117 73 117 1 0 -3 -28 -10 -62z
m1230 -131 c15 -24 -7 -45 -29 -27 -20 17 -37 2 -85 -72 -36 -54 -68 -143 -57
-154 3 -3 34 31 69 75 109 139 122 125 79 -86 -18 -87 -35 -189 -38 -228 -4
-46 -13 -82 -27 -105 l-21 -35 -3 40 c-5 60 16 244 38 331 11 43 18 79 16 81
-2 2 -22 -21 -45 -51 -48 -65 -75 -83 -97 -65 -33 27 -8 143 52 236 54 85 117
110 148 60z m216 -126 c0 -4 -27 -64 -59 -132 -32 -68 -71 -159 -86 -201 -25
-70 -40 -89 -57 -72 -4 3 20 70 52 149 66 160 95 221 118 248 16 18 32 23 32
8z m-1534 -73 c-4 -36 -2 -96 5 -138 13 -80 18 -220 8 -220 -3 0 -16 37 -29
83 -18 60 -25 116 -28 210 l-4 127 27 0 27 0 -6 -62z m1384 -63 c1 -27 -74
-201 -78 -182 -4 21 25 184 40 220 l11 29 13 -24 c7 -12 14 -32 14 -43z
m-1280 -303 c0 -7 -30 -25 -82 -50 -5 -2 -8 1 -8 7 0 6 17 19 38 30 41 22 52
25 52 13z m1210 3 c0 -3 -5 -14 -12 -25 -19 -29 -1 -36 23 -9 18 21 20 21 14
4 -11 -33 -11 -37 2 -42 6 -2 14 5 18 16 3 12 11 21 16 21 14 0 11 -12 -10
-39 -17 -22 -19 -23 -49 -7 -40 21 -45 29 -31 60 11 23 29 36 29 21z m-1143
-119 c-2 -6 -8 -22 -12 -36 l-8 -24 28 18 c15 10 29 16 31 13 7 -7 -68 -67
-77 -61 -4 2 -1 23 7 46 l15 42 -26 -24 c-14 -13 -28 -21 -31 -17 -8 8 59 66
69 60 5 -3 6 -10 4 -17z m-18 -185 c-14 -4 -79 62 -79 81 0 7 20 -8 45 -32 26
-26 41 -46 34 -49z m148 37 l-6 -43 23 28 c12 15 25 25 28 21 7 -7 -43 -83
-54 -84 -5 0 -8 19 -8 43 l0 42 -20 -25 c-29 -38 -33 -19 -4 23 33 50 48 48
41 -5z"/>
<path d="M1796 1613 c-19 -57 -21 -106 -3 -101 26 9 50 129 28 142 -5 3 -16
-15 -25 -41z"/>
<path d="M1951 1076 c-32 -34 -24 -57 31 -86 45 -24 48 -24 65 -7 17 16 16 19
-8 65 -29 55 -55 63 -88 28z m50 -9 c-8 -8 -3 -19 16 -39 35 -37 21 -49 -16
-14 -18 17 -31 24 -35 17 -4 -6 -12 -11 -17 -11 -5 0 2 15 18 34 15 19 31 32
36 29 5 -3 4 -10 -2 -16z"/>
<path d="M1846 974 c-21 -20 -20 -25 7 -65 25 -37 57 -48 76 -25 14 17 3 45
-32 84 -24 26 -31 27 -51 6z m47 -44 c15 -21 23 -41 18 -45 -5 -3 -20 12 -32
33 -31 49 -32 52 -21 52 5 0 21 -18 35 -40z"/>
<path d="M1722 916 c-47 -17 -55 -30 -48 -70 11 -59 67 -83 114 -50 29 20 29
72 1 108 -23 29 -21 28 -67 12z m56 -43 c10 -31 9 -40 -5 -55 -9 -10 -22 -18
-29 -18 -15 0 -38 33 -49 68 -11 37 13 25 25 -14 8 -24 17 -34 28 -32 18 4 19
15 7 61 -11 41 10 33 23 -10z"/>
<path d="M1342 867 c-31 -33 -39 -83 -17 -107 20 -22 74 -27 93 -8 20 20 15
91 -8 116 -26 28 -41 28 -68 -1z m53 -17 c4 -6 1 -17 -5 -25 -10 -12 -10 -15
1 -15 8 0 14 -10 14 -24 0 -22 -3 -24 -30 -19 -16 3 -34 9 -38 13 -10 8 2 40
15 40 5 0 6 5 3 10 -3 6 -3 15 0 20 8 13 32 13 40 0z"/>
<path d="M1523 873 c-18 -12 -23 -25 -23 -57 0 -55 33 -91 74 -80 59 14 70 94
18 134 -29 24 -40 24 -69 3z m67 -28 c11 -13 8 -14 -19 -9 -18 4 -31 2 -31 -3
0 -6 14 -13 31 -17 25 -5 30 -10 27 -28 -4 -28 -48 -37 -68 -14 -11 14 -9 15
19 10 20 -4 31 -3 31 5 0 6 -6 11 -13 11 -7 0 -22 6 -32 14 -16 12 -17 16 -6
30 17 20 45 21 61 1z"/>
</g>
</svg>
